# xmcd CD database file
#
# Track frame offsets:
#	150
#	18532
#	39962
#	62737
#	81302
#	100385
#	122332
#	144467
#
# Disc length: 2052 seconds
#
# Revision: 0
# Processed by: cddbd v1.5.1PL0 Copyright (c) Steve Scherf et al.
# Submitted via: CDex 1.51
#
DISCID=63080208
DTITLE=Vari - I COLORI DELLA VITA - Futuro
DYEAR=2005
DGENRE=New Age
TTITLE0=Alex Baroni - Speriamo
TTITLE1=Anna Oxa - Washington
TTITLE2=Mario Castelnuovo - Oceania
TTITLE3=Matia Bazar - Piccoli giganti 
TTITLE4=Gigi D'Alessio -Non mollare mai
TTITLE5=Gino Paoli - Quattro amici
TTITLE6=Antonella Ruggiero - Occhi di Bambino
TTITLE7=Francesco De Gregori - Buonanotte fiorellino
EXTD=YEAR: 2005
EXTT0=
EXTT1=
EXTT2=
EXTT3=
EXTT4=
EXTT5=
EXTT6=
EXTT7=
PLAYORDER=
